<svg width="80" height="80" viewBox="0 0 80 80" fill="none" xmlns="http://www.w3.org/2000/svg">
<rect width="80" height="80" rx="30" fill="#84CC16"/>
<path d="M47.1708 41H31C30.4477 41 30 40.5523 30 40C30 39.4477 30.4477 39 31 39H47.1708C47.0725 38.7375 46.8907 38.4412 46.5313 38.0179C46.1308 37.5461 45.5711 36.9853 44.7674 36.1816L43.2929 34.7071C42.9024 34.3166 42.9024 33.6834 43.2929 33.2929C43.6834 32.9024 44.3166 32.9024 44.7071 33.2929L46.2119 34.7977C46.9782 35.564 47.5964 36.1821 48.056 36.7236C48.5293 37.2811 48.893 37.8227 49.0984 38.4549C49.4247 39.4591 49.4247 40.5409 49.0984 41.5451C48.893 42.1773 48.5293 42.7189 48.056 43.2764C47.5964 43.8179 46.9783 44.436 46.2119 45.2023L44.7071 46.7071C44.3166 47.0976 43.6834 47.0976 43.2929 46.7071C42.9024 46.3166 42.9024 45.6834 43.2929 45.2929L44.7674 43.8184C45.5711 43.0147 46.1308 42.4539 46.5313 41.9821C46.8907 41.5588 47.0725 41.2625 47.1708 41Z" fill="white"/>
</svg>
