<svg width="80" height="80" viewBox="0 0 80 80" fill="none" xmlns="http://www.w3.org/2000/svg">
<rect width="80" height="80" rx="30" fill="#84CC16"/>
<path d="M32.1981 41C32.2185 41.0792 32.2415 41.1579 32.2668 41.2361C32.3953 41.6313 32.644 42.049 33.1452 42.6394C33.654 43.2387 34.3623 43.948 35.364 44.9497L37.7071 47.2929C38.0976 47.6834 38.0976 48.3166 37.7071 48.7071C37.3166 49.0976 36.6834 49.0976 36.2929 48.7071L33.9188 46.333C32.955 45.3692 32.1885 44.6027 31.6206 43.9337C31.039 43.2487 30.6072 42.6005 30.3647 41.8541C30.211 41.3811 30.1177 40.8937 30.0846 40.4032C30.0302 40.2799 30 40.1435 30 40C30 39.8565 30.0302 39.7201 30.0846 39.5968C30.1177 39.1063 30.211 38.6189 30.3647 38.1459C30.6072 37.3995 31.039 36.7513 31.6206 36.0663C32.1884 35.3973 32.955 34.6308 33.9188 33.667L36.2929 31.2929C36.6834 30.9024 37.3166 30.9024 37.7071 31.2929C38.0976 31.6834 38.0976 32.3166 37.7071 32.7071L35.364 35.0503C34.3622 36.052 33.654 36.7613 33.1452 37.3606C32.644 37.951 32.3953 38.3687 32.2668 38.7639C32.2415 38.8421 32.2185 38.9208 32.1981 39H49C49.5523 39 50 39.4477 50 40C50 40.5523 49.5523 41 49 41H32.1981Z" fill="white"/>
</svg>
